<svg xmlns="http://www.w3.org/2000/svg" width="6.500" height="4.333" viewBox="0 0 6.500 4.333" fill="none">
  <path d="M 0.766 1.401 C 0.343 0.978 -0.343 0.978 -0.766 1.401 C -1.189 1.824 -1.189 2.51 -0.766 2.933 L 0 2.167 L 0.766 1.401 Z M 2.167 4.333 L 1.401 5.099 C 1.824 5.522 2.51 5.522 2.933 5.099 L 2.167 4.333 Z M 7.266 0.766 C 7.689 0.343 7.689 -0.343 7.266 -0.766 C 6.843 -1.189 6.157 -1.189 5.734 -0.766 L 6.5 0 L 7.266 0.766 Z M 0 2.167 L -0.766 2.933 L 1.401 5.099 L 2.167 4.333 L 2.933 3.567 L 0.766 1.401 L 0 2.167 Z M 2.167 4.333 L 2.933 5.099 L 7.266 0.766 L 6.5 0 L 5.734 -0.766 L 1.401 3.567 L 2.167 4.333 Z" fill="currentColor" fill-rule="nonzero"></path>
</svg>